# xmcd
#
# Track frame offsets:
#	150
#	15908
#	27461
#	37992
#	52568
#	73726
#	90900
#	120060
#	135754
#	149328
#	164698
#	178030
#	192523
#	205939
#	221683
#
# Disc length: 3174 seconds
#
# Revision: 0
# Processed by: cddbd v1.5.2PL0 Copyright (c) Steve Scherf et al.
# Submitted via: EasyCDDAExtractor 16.0.8.2
#
DISCID=c10c640f
DTITLE=Συλλογικός δίσκος - Τα πανηγύρια τού Αιγαίου 2
DYEAR=2013
DGENRE=Παραδοσιακή
TTITLE0=Παπαδοπούλου Κατερίνα-Σινοπούλου Ουρ. - Η μπρατσέρα [Λέρος]
TTITLE1=Παπαντωνίου Ζαφειρία - Αρμενάκι είμαι, κυρά μου [Ανατολ. Αιγαίο-Μικρασ
TTITLE1=ία]
TTITLE2=Άνευ ερμηνευτού - Πηδηχ. χορός Ρόδου (Εμπωνιάτικος ή Κρητικός)[Ρόδος]
TTITLE3=Παπαστεφάνου Αμαλία - Ξενητεμένο μου πουλί [Αιγαιοπελαγίτικο]
TTITLE4=Παυλίδης Γιάννης - Η μέρα έχει βάσανα [Ρόδος]
TTITLE5=Κοντός Κώστας - Ήλιε μου κι αντινήλιε μου [Σύμη]
TTITLE6=Παραγιός Γιώργος - Πάρε Φραντζή τη λύρα σου [Νίσυρος]
TTITLE7=Παπαδοπούλου Κατερίνα - Μαρούλι [Κάλυμνος]
TTITLE8=Δερέμπεη Ειρήνη - Ο μισεμάς [Καστελόριζο]
TTITLE9=Άνευ ερμηνευτού - Σούστα Κώτικη [Κως]
TTITLE10=Παπαστεφάνου Αμαλία - Περβολαριά [Δωδεκάνησα-Μικρασία]
TTITLE11=Χατζιδάκη Δικαία - Μπαρμπα Θοδωρή [Λέρος]
TTITLE12=Άνευ ερμηνευτού - Λέρικος [Λέρος, βιολί Βασ. Καραντάνης]
TTITLE13=Παπαστεφάνου Αμαλία - Αρχαγγελίτικος [Ρόδος]
TTITLE14=Χατζιδάκη Δικαία - Το κάστρο της Αστροπαλιάς [Αστυπάλαια]
EXTD=
EXTT0=
EXTT1=
EXTT2=
EXTT3=
EXTT4=
EXTT5=
EXTT6=
EXTT7=
EXTT8=
EXTT9=
EXTT10=
EXTT11=
EXTT12=
EXTT13=
EXTT14=
PLAYORDER=
